<svg width="59" height="30" viewBox="0 0 59 30" fill="none" xmlns="http://www.w3.org/2000/svg">
<rect x="0.5" y="0.5" width="58" height="29" rx="2.5" fill="white"/>
<rect x="0.5" y="0.5" width="58" height="29" rx="2.5" stroke="black"/>
<path d="M19.3666 20.52C18.7133 21.1533 17.9999 21.0533 17.3133 20.7533C16.5866 20.4467 15.9199 20.4333 15.1533 20.7533C14.1933 21.1667 13.6866 21.0467 13.1133 20.52C9.85995 17.1667 10.3399 12.06 14.0333 11.8733C14.9333 11.92 15.5599 12.3667 16.0866 12.4067C16.8733 12.2467 17.6266 11.7867 18.4666 11.8467C19.4733 11.9267 20.2333 12.3267 20.7333 13.0467C18.6533 14.2933 19.1466 17.0333 21.0533 17.8C20.6733 18.8 20.1799 19.7933 19.3599 20.5267L19.3666 20.52ZM16.0199 11.8333C15.9199 10.3467 17.1266 9.12 18.5133 9C18.7066 10.72 16.9533 12 16.0199 11.8333Z" fill="#1C293E"/>
<path d="M34.732 13.144C34.732 13.568 34.632 13.968 34.432 14.344C34.232 14.72 33.912 15.028 33.472 15.268C33.032 15.5 32.468 15.616 31.78 15.616H30.268V19H28.9V10.66H31.78C32.42 10.66 32.96 10.772 33.4 10.996C33.848 11.212 34.18 11.508 34.396 11.884C34.62 12.26 34.732 12.68 34.732 13.144ZM31.78 14.5C32.3 14.5 32.688 14.384 32.944 14.152C33.2 13.912 33.328 13.576 33.328 13.144C33.328 12.232 32.812 11.776 31.78 11.776H30.268V14.5H31.78ZM35.5807 15.664C35.5807 15 35.7167 14.412 35.9887 13.9C36.2687 13.388 36.6447 12.992 37.1167 12.712C37.5967 12.424 38.1247 12.28 38.7007 12.28C39.2207 12.28 39.6727 12.384 40.0567 12.592C40.4487 12.792 40.7607 13.044 40.9927 13.348V12.388H42.3727V19H40.9927V18.016C40.7607 18.328 40.4447 18.588 40.0447 18.796C39.6447 19.004 39.1887 19.108 38.6767 19.108C38.1087 19.108 37.5887 18.964 37.1167 18.676C36.6447 18.38 36.2687 17.972 35.9887 17.452C35.7167 16.924 35.5807 16.328 35.5807 15.664ZM40.9927 15.688C40.9927 15.232 40.8967 14.836 40.7047 14.5C40.5207 14.164 40.2767 13.908 39.9727 13.732C39.6687 13.556 39.3407 13.468 38.9887 13.468C38.6367 13.468 38.3087 13.556 38.0047 13.732C37.7007 13.9 37.4527 14.152 37.2607 14.488C37.0767 14.816 36.9847 15.208 36.9847 15.664C36.9847 16.12 37.0767 16.52 37.2607 16.864C37.4527 17.208 37.7007 17.472 38.0047 17.656C38.3167 17.832 38.6447 17.92 38.9887 17.92C39.3407 17.92 39.6687 17.832 39.9727 17.656C40.2767 17.48 40.5207 17.224 40.7047 16.888C40.8967 16.544 40.9927 16.144 40.9927 15.688ZM50.1215 12.388L46.0655 22.108H44.6495L45.9935 18.892L43.3895 12.388H44.9135L46.7735 17.428L48.7055 12.388H50.1215Z" fill="black"/>
</svg>
