<svg width="62" height="62" viewBox="0 0 62 62" fill="none" xmlns="http://www.w3.org/2000/svg">
<circle cx="31" cy="31" r="31" fill="black"/>
<path d="M36.9391 31.5953C36.9297 29.875 37.7078 28.5766 39.2828 27.6203C38.4016 26.3594 37.0703 25.6656 35.3125 25.5297C33.6484 25.3984 31.8297 26.5 31.1641 26.5C30.4609 26.5 28.8484 25.5766 27.5828 25.5766C24.9672 25.6188 22.1875 27.6625 22.1875 31.8203C22.1875 33.0484 22.4125 34.3172 22.8625 35.6266C23.4625 37.3469 25.6281 41.5656 27.8875 41.4953C29.0687 41.4672 29.9031 40.6563 31.4406 40.6563C32.9312 40.6563 33.7047 41.4953 35.0219 41.4953C37.3 41.4625 39.2594 37.6281 39.8312 35.9031C36.775 34.4641 36.9391 31.6844 36.9391 31.5953ZM34.2859 23.8984C35.5656 22.3797 35.4484 20.9969 35.4109 20.5C34.2812 20.5656 32.9734 21.2688 32.2281 22.1359C31.4078 23.0641 30.925 24.2125 31.0281 25.5063C32.2516 25.6 33.3672 24.9719 34.2859 23.8984Z" fill="white"/>
</svg>
