<svg width="62" height="62" viewBox="0 0 62 62" fill="none" xmlns="http://www.w3.org/2000/svg">
<circle cx="31" cy="31" r="31" fill="#5897F4"/>
<path d="M33.9101 24.9195H35.3221C35.5043 24.9196 35.6789 24.8422 35.8064 24.7048C35.9339 24.5674 36.0036 24.3816 35.9999 24.1893V21.8048C36.0011 21.4318 35.7307 21.1205 35.3786 21.0894C35.3786 21.0894 34.376 21 33.1476 21C30.1258 21 28.4596 22.8927 28.4596 26.3204V28.9583H25.6779C25.497 28.9542 25.3223 29.0282 25.1944 29.1633C25.0664 29.2983 24.9963 29.4827 25.0002 29.6736V31.8495C24.9963 32.0404 25.0664 32.2248 25.1944 32.3598C25.3223 32.4949 25.497 32.5689 25.6779 32.5648H28.4173V41H32.5404V32.5648H35.0256C35.3668 32.5612 35.6546 32.2954 35.7033 31.9389L35.9575 29.763C35.9834 29.5571 35.9213 29.3496 35.788 29.1967C35.6587 29.0441 35.4737 28.9573 35.2797 28.9583H32.5404V26.4098C32.54 25.6039 33.1468 24.9437 33.9101 24.9195Z" fill="white"/>
</svg>
