<svg width="62" height="62" viewBox="0 0 62 62" fill="none" xmlns="http://www.w3.org/2000/svg">
<circle cx="31" cy="31" r="31" fill="#EFF1F8"/>
<path d="M40.8055 29.0415H40V29H31V33H36.6515C35.827 35.3285 33.6115 37 31 37C27.6865 37 25 34.3135 25 31C25 27.6865 27.6865 25 31 25C32.5295 25 33.921 25.577 34.9805 26.5195L37.809 23.691C36.023 22.0265 33.634 21 31 21C25.4775 21 21 25.4775 21 31C21 36.5225 25.4775 41 31 41C36.5225 41 41 36.5225 41 31C41 30.3295 40.931 29.675 40.8055 29.0415Z" fill="#FBCA00"/>
<path d="M22.1523 26.3455L25.4378 28.755C26.3268 26.554 28.4798 25 30.9993 25C32.5288 25 33.9203 25.577 34.9798 26.5195L37.8083 23.691C36.0223 22.0265 33.6333 21 30.9993 21C27.1583 21 23.8273 23.1685 22.1523 26.3455Z" fill="#FE7B1E"/>
<path d="M31.0002 41.0003C33.5832 41.0003 35.9302 40.0118 37.7047 38.4043L34.6097 35.7853C33.5719 36.5745 32.3039 37.0014 31.0002 37.0003C28.3992 37.0003 26.1907 35.3418 25.3587 33.0273L22.0977 35.5398C23.7527 38.7783 27.1137 41.0003 31.0002 41.0003Z" fill="#0DB14C"/>
<path d="M40.8055 29.0415H40V29H31V33H36.6515C36.2571 34.1082 35.5467 35.0766 34.608 35.7855L34.6095 35.7845L37.7045 38.4035C37.4855 38.6025 41 36 41 31C41 30.3295 40.931 29.675 40.8055 29.0415Z" fill="#5897F4"/>
</svg>
