<svg width="208" height="197" viewBox="0 0 208 197" fill="none" xmlns="http://www.w3.org/2000/svg">
<path d="M186.232 98.935V103.234C186.232 105.803 179.585 107.894 171.379 107.894C163.173 107.894 156.519 105.803 156.519 103.234V98.935H165.658C167.423 98.6995 169.35 98.5743 171.379 98.5743C173.401 98.5743 175.335 98.6995 177.092 98.935H186.232Z" fill="#D2D5DF"/>
<path d="M186.232 98.936C186.232 101.505 179.585 103.588 171.379 103.588C163.173 103.588 156.519 101.505 156.519 98.936C156.519 96.3596 163.173 94.2764 171.379 94.2764C179.585 94.2764 186.232 96.3596 186.232 98.936Z" fill="#E7F2E7"/>
<g style="mix-blend-mode:multiply" opacity="0.3">
<path d="M171.379 102.321C167.533 102.321 163.938 101.857 161.246 101.01C158.423 100.127 157.791 99.1923 157.791 98.9346C157.791 98.677 158.423 97.7348 161.246 96.8514C163.938 96.0122 167.533 95.5485 171.379 95.5485C175.217 95.5485 178.813 96.0122 181.504 96.8514C184.328 97.7348 184.96 98.677 184.96 98.9346C184.96 99.1923 184.328 100.127 181.504 101.01C178.813 101.857 175.217 102.321 171.379 102.321Z" fill="#75869C"/>
</g>
<g style="mix-blend-mode:multiply" opacity="0.3">
<path d="M171.379 102.321C167.533 102.321 163.938 101.821 161.246 100.915C158.423 99.9658 157.791 98.9573 157.791 98.6849C157.791 98.4052 158.423 97.4041 161.246 96.4471C163.938 95.549 167.533 95.0485 171.379 95.0485C175.217 95.0485 178.813 95.549 181.504 96.4471C184.328 97.4041 184.96 98.4052 184.96 98.6849C184.96 98.9573 184.328 99.9658 181.504 100.915C178.813 101.821 175.217 102.321 171.379 102.321Z" fill="#75869C"/>
</g>
<path d="M163.18 100.488C162.82 100.488 162.497 100.275 162.43 99.9655C162.357 99.6122 162.629 99.2809 163.041 99.2147L178.519 96.837C178.931 96.7707 179.328 97.0063 179.409 97.3523C179.482 97.6982 179.21 98.0369 178.791 98.0957L163.32 100.481C163.271 100.486 163.225 100.488 163.18 100.488Z" fill="#75869C"/>
<path d="M185.07 93.1951V97.494C185.07 100.063 178.415 102.154 170.21 102.154C162.004 102.154 155.356 100.063 155.356 97.494V93.1951H164.496C166.261 92.9595 168.187 92.8344 170.21 92.8344C172.239 92.8344 174.165 92.9595 175.93 93.1951H185.07Z" fill="#D2D5DF"/>
<path d="M185.07 93.1943C185.07 95.7634 178.415 97.8466 170.21 97.8466C162.004 97.8466 155.356 95.7634 155.356 93.1943C155.356 90.6179 162.004 88.5347 170.21 88.5347C178.415 88.5347 185.07 90.6179 185.07 93.1943Z" fill="#EFF1F8"/>
<g style="mix-blend-mode:multiply" opacity="0.3">
<path d="M170.209 96.5782C166.371 96.5782 162.776 96.1145 160.084 95.2679C157.261 94.3846 156.628 93.4497 156.628 93.1921C156.628 92.9344 157.261 91.9922 160.084 91.1089C162.776 90.2697 166.371 89.8059 170.209 89.8059C174.055 89.8059 177.651 90.2697 180.342 91.1089C183.165 91.9922 183.798 92.9344 183.798 93.1921C183.798 93.4497 183.165 94.3846 180.342 95.2679C177.651 96.1145 174.055 96.5782 170.209 96.5782Z" fill="#75869C"/>
</g>
<g style="mix-blend-mode:multiply" opacity="0.3">
<path d="M170.209 96.5806C166.371 96.5806 162.776 96.0801 160.084 95.1746C157.261 94.225 156.628 93.2165 156.628 92.9442C156.628 92.6645 157.261 91.6633 160.084 90.7064C162.776 89.8083 166.371 89.3077 170.209 89.3077C174.055 89.3077 177.651 89.8083 180.342 90.7064C183.165 91.6633 183.798 92.6645 183.798 92.9442C183.798 93.2165 183.165 94.225 180.342 95.1746C177.651 96.0801 174.055 96.5806 170.209 96.5806Z" fill="#75869C"/>
</g>
<path d="M162.018 94.7457C161.658 94.7457 161.335 94.5322 161.268 94.2231C161.195 93.8697 161.467 93.5385 161.879 93.4722L177.357 91.0945C177.768 91.0283 178.166 91.2639 178.246 91.6098C178.32 91.9558 178.048 92.2944 177.629 92.3533L162.158 94.7384C162.109 94.7433 162.062 94.7457 162.018 94.7457Z" fill="#75869C"/>
<path d="M160.607 85.817C166.46 90.5208 166.43 99.9874 161.099 105.332C155.761 110.676 146.754 110.985 141.07 106.112C135.489 101.32 133.937 92.7586 139.107 87.5837C144.276 82.4088 154.857 81.1868 160.607 85.817Z" fill="#E3E5ED"/>
<path d="M159.511 84.8232C165.364 89.5344 165.857 97.7421 160.526 103.079C155.188 108.423 146.18 108.74 140.496 103.867C134.915 99.0745 134.643 91.0581 139.813 85.8832C144.982 80.7083 153.754 80.2003 159.511 84.8232Z" fill="#EFF1F8"/>
<g style="mix-blend-mode:multiply" opacity="0.3">
<path d="M141.261 102.969C138.827 100.878 137.416 98.0444 137.298 94.9969C137.18 91.9346 138.372 88.9975 140.644 86.7155C145.18 82.1736 152.864 81.5406 158.144 85.2653C158.357 85.4199 158.57 85.5819 158.769 85.7438C161.357 87.8197 162.872 90.6832 163.041 93.8117C163.21 96.9255 162.019 99.9215 159.695 102.248C157.475 104.471 154.453 105.84 151.18 106.098C147.938 106.355 144.747 105.501 142.202 103.705C141.879 103.477 141.563 103.227 141.261 102.969Z" fill="#75869C"/>
</g>
<path d="M157.923 86.4143C158.452 86.8339 158.489 87.57 158.018 88.0485L144.143 101.939C143.665 102.418 142.856 102.454 142.349 102.013C141.834 101.578 141.805 100.835 142.283 100.356L156.114 86.51C156.592 86.0315 157.401 85.9874 157.923 86.4143Z" fill="#75869C"/>
<g style="mix-blend-mode:multiply" opacity="0.3">
<path d="M142.283 100.356L156.114 86.51C156.592 86.0315 157.401 85.9874 157.923 86.4143C158.107 86.5542 158.232 86.7382 158.29 86.937C158.266 86.9075 158.237 86.8805 158.202 86.856C157.68 86.429 156.871 86.4732 156.393 86.9517L142.555 100.806C142.239 101.122 142.151 101.564 142.276 101.947C141.834 101.505 141.827 100.813 142.283 100.356Z" fill="#75869C"/>
</g>
<path d="M137.974 106.053L160.496 103.05C158.099 112.671 158.511 122.565 161.092 132.097L141.783 134.674C133.923 135.719 126.628 130.139 125.584 122.27C124.54 114.394 130.114 107.099 137.974 106.053Z" fill="#E7F2E7"/>
<g style="mix-blend-mode:multiply" opacity="0.5">
<path d="M144.548 122.867C148.136 124.81 152.173 123.367 154.651 121.52C160.077 116.86 167.166 111.074 173.467 112.959C181.004 115.277 188.261 115.52 195.306 111.899C195.379 112.245 195.445 112.598 195.497 112.951C196.541 120.82 190.967 128.123 183.1 129.168L141.783 134.674C133.923 135.72 126.629 130.14 125.584 122.271C125.393 120.806 125.423 119.37 125.658 117.986C132.092 118.067 138.46 119.599 144.548 122.867Z" fill="#75869C"/>
</g>
<path d="M160.497 103.05L179.298 100.547C187.159 99.502 194.445 105.082 195.497 112.951C196.541 120.82 190.968 128.122 183.1 129.168L161.092 132.098C158.511 122.565 158.1 112.671 160.497 103.05Z" fill="#EFF1F8"/>
<g style="mix-blend-mode:multiply" opacity="0.3">
<path d="M158.945 117.994C163.534 114.475 168.725 111.545 173.467 112.959C181.004 115.277 188.262 115.52 195.306 111.899C195.34 112.056 195.372 112.215 195.401 112.377C195.438 112.569 195.468 112.76 195.497 112.951C196.541 120.82 190.968 128.123 183.1 129.168L161.092 132.098C159.835 127.46 159.1 122.734 158.945 117.994Z" fill="#FBCA00"/>
</g>
<path d="M200.585 143.831C199.35 151.678 191.931 157.081 184.092 155.844L164.85 152.797C167.666 143.33 168.32 133.451 166.151 123.771L188.592 127.32C196.431 128.564 201.828 135.991 200.585 143.831Z" fill="#EFF1F8"/>
<g style="mix-blend-mode:multiply" opacity="0.5">
<path d="M200.614 139.554C200.82 140.938 200.82 142.381 200.585 143.831C199.35 151.678 191.931 157.081 184.092 155.845L142.923 149.33C135.084 148.093 129.687 140.666 130.923 132.819C130.982 132.465 131.055 132.112 131.136 131.766C138.092 135.564 145.357 135.491 152.945 133.363C159.291 131.633 166.239 137.589 171.548 142.381C173.982 144.28 177.982 145.826 181.614 143.971C187.783 140.857 194.188 139.481 200.614 139.554Z" fill="#75869C"/>
</g>
<path d="M164.849 152.798L142.923 149.331C135.084 148.094 129.687 140.667 130.923 132.82C132.165 124.98 139.585 119.577 147.415 120.814L166.151 123.773C168.32 133.453 167.666 143.332 164.849 152.798Z" fill="#EFF1F8"/>
<g style="mix-blend-mode:multiply" opacity="0.3">
<path d="M164.849 152.797L142.923 149.33C135.084 148.093 129.687 140.666 130.923 132.819C130.959 132.627 130.996 132.436 131.033 132.252C131.067 132.09 131.102 131.928 131.136 131.766C138.092 135.564 145.357 135.491 152.945 133.363C157.724 132.06 162.842 135.115 167.342 138.752C167.077 143.485 166.224 148.189 164.849 152.797Z" fill="#FBCA00"/>
</g>
<path d="M98.81 136.837C98.81 142.596 94.0994 147.318 88.3416 147.318H45.1868C39.429 147.318 34.7183 142.596 34.7183 136.837V54.642C34.7183 48.8835 39.429 44.1613 45.1868 44.1613C47.1715 44.1613 48.7773 42.553 48.7773 40.5673V26.927C48.7773 24.9597 50.3921 23.3438 52.356 23.3438H81.1724C83.1362 23.3438 84.7511 24.9597 84.7511 26.927V40.5673C84.7511 42.553 86.3568 44.1613 88.3416 44.1613C94.0994 44.1613 98.81 48.8835 98.81 54.642V136.837Z" stroke="#1C293E" stroke-width="0.901493"/>
<g style="mix-blend-mode:multiply" opacity="0.3">
<path d="M89.4517 147.71C88.937 147.158 88.1061 146.304 87.0326 145.318C79.7384 138.611 75.1207 138.67 71.4957 134.29C67.981 130.058 67.9148 124.699 67.8927 122.741C67.7971 115.122 72.1648 113.061 73.6428 104.801C74.9663 97.3665 72.8413 91.1536 72.1134 89.1072C68.1574 77.9771 60.7162 78.0654 58.0912 67.4873C56.4956 61.0242 57.8779 55.3928 58.2309 54.0678C59.6427 48.753 61.9736 46.9495 64.128 42.4886C66.0398 38.5356 67.9074 32.3007 66.7751 22.893H81.1723C83.3855 22.893 85.2017 24.7112 85.2017 26.927V40.5673C85.2017 42.3046 86.6061 43.7106 88.3414 43.7106C94.3488 43.7106 99.2606 48.6352 99.2606 54.642V136.837C99.2606 142.469 94.9371 147.15 89.4517 147.71Z" fill="#75869C"/>
</g>
<path d="M90.6461 25.082H42.9917C42.9766 25.082 42.9526 25.0764 42.9253 25.0455C42.8972 25.0137 42.8716 24.9595 42.8716 24.8876V12.1023C42.8716 12.0303 42.8972 11.9761 42.9253 11.9443C42.9526 11.9135 42.9766 11.9078 42.9917 11.9078H90.6461C90.6612 11.9078 90.6852 11.9135 90.7124 11.9443C90.7406 11.9761 90.7661 12.0303 90.7661 12.1023V24.8876C90.7661 24.9595 90.7406 25.0137 90.7124 25.0455C90.6852 25.0764 90.6612 25.082 90.6461 25.082Z" fill="white" stroke="#1C293E" stroke-width="0.901493"/>
<path d="M82.113 21.7838H79.9585C79.8188 21.7838 79.7012 21.6661 79.7012 21.5262V15.4679C79.7012 15.3207 79.8188 15.2103 79.9585 15.2103H82.113C82.26 15.2103 82.3703 15.3207 82.3703 15.4679V21.5262C82.3703 21.6661 82.26 21.7838 82.113 21.7838Z" fill="#75869C"/>
<path d="M86.3581 21.7838H84.2036C84.0639 21.7838 83.9463 21.6661 83.9463 21.5262V15.4679C83.9463 15.3207 84.0639 15.2103 84.2036 15.2103H86.3581C86.5051 15.2103 86.6154 15.3207 86.6154 15.4679V21.5262C86.6154 21.6661 86.5051 21.7838 86.3581 21.7838Z" fill="#75869C"/>
<path d="M77.4587 21.7838H75.3042C75.1645 21.7838 75.0469 21.6661 75.0469 21.5262V15.4679C75.0469 15.3207 75.1645 15.2103 75.3042 15.2103H77.4587C77.6057 15.2103 77.716 15.3207 77.716 15.4679V21.5262C77.716 21.6661 77.6057 21.7838 77.4587 21.7838Z" fill="#75869C"/>
<path d="M72.8044 21.7838H70.6499C70.5102 21.7838 70.3926 21.6661 70.3926 21.5262V15.4679C70.3926 15.3207 70.5102 15.2103 70.6499 15.2103H72.8044C72.9441 15.2103 73.0617 15.3207 73.0617 15.4679V21.5262C73.0617 21.6661 72.9441 21.7838 72.8044 21.7838Z" fill="#75869C"/>
<path d="M68.1501 21.7838H65.9956C65.8559 21.7838 65.7383 21.6661 65.7383 21.5262V15.4679C65.7383 15.3207 65.8559 15.2103 65.9956 15.2103H68.1501C68.2898 15.2103 68.4074 15.3207 68.4074 15.4679V21.5262C68.4074 21.6661 68.2898 21.7838 68.1501 21.7838Z" fill="#75869C"/>
<path d="M63.4953 21.7838H61.3409C61.1938 21.7838 61.0835 21.6661 61.0835 21.5262V15.4679C61.0835 15.3207 61.1938 15.2103 61.3409 15.2103H63.4953C63.635 15.2103 63.7526 15.3207 63.7526 15.4679V21.5262C63.7526 21.6661 63.635 21.7838 63.4953 21.7838Z" fill="#75869C"/>
<path d="M58.841 21.7838H56.6866C56.5395 21.7838 56.4292 21.6661 56.4292 21.5262V15.4679C56.4292 15.3207 56.5395 15.2103 56.6866 15.2103H58.841C58.9807 15.2103 59.0983 15.3207 59.0983 15.4679V21.5262C59.0983 21.6661 58.9807 21.7838 58.841 21.7838Z" fill="#75869C"/>
<path d="M54.1857 21.7838H52.0313C51.8843 21.7838 51.7666 21.6661 51.7666 21.5262V15.4679C51.7666 15.3207 51.8843 15.2103 52.0313 15.2103H54.1857C54.3254 15.2103 54.4431 15.3207 54.4431 15.4679V21.5262C54.4431 21.6661 54.3254 21.7838 54.1857 21.7838Z" fill="#75869C"/>
<path d="M49.5319 21.7838H47.3701C47.2304 21.7838 47.1128 21.6661 47.1128 21.5262V15.4679C47.1128 15.3207 47.2304 15.2103 47.3701 15.2103H49.5319C49.6716 15.2103 49.7893 15.3207 49.7893 15.4679V21.5262C49.7893 21.6661 49.6716 21.7838 49.5319 21.7838Z" fill="#75869C"/>
<path d="M40.7599 127.019C40.3261 127.019 39.9731 126.665 39.9731 126.231V55.6441C39.9731 53.134 41.4585 50.8888 43.7673 49.9097C44.1644 49.7404 44.6276 49.9318 44.7967 50.3293C44.9658 50.7268 44.782 51.1906 44.3776 51.3599C42.657 52.0887 41.5467 53.7744 41.5467 55.6441V126.231C41.5467 126.665 41.1937 127.019 40.7599 127.019Z" fill="#1C293E"/>
<path d="M53.4074 42.6655C52.9736 42.6655 52.6206 42.3121 52.6206 41.8778V33.5449C52.6206 33.1032 52.9736 32.7573 53.4074 32.7573C53.8486 32.7573 54.1942 33.1032 54.1942 33.5449V41.8778C54.1942 42.3121 53.8486 42.6655 53.4074 42.6655Z" fill="#1C293E"/>
<path d="M50.4734 121.321V127.446C50.4734 131.119 40.9954 134.086 29.2968 134.086C17.6055 134.086 8.12012 131.119 8.12012 127.446V121.321H21.1496C23.657 120.99 26.4144 120.806 29.2968 120.806C32.1865 120.806 34.9365 120.99 37.4439 121.321H50.4734Z" fill="#E3E5ED"/>
<path d="M50.4734 121.321C50.4734 124.986 40.9954 127.96 29.2968 127.96C17.6055 127.96 8.12012 124.986 8.12012 121.321C8.12012 117.647 17.6055 114.681 29.2968 114.681C40.9954 114.681 50.4734 117.647 50.4734 121.321Z" fill="#EFF1F8"/>
<g style="mix-blend-mode:multiply" opacity="0.3">
<path d="M29.2965 126.142C23.8185 126.142 18.6935 125.48 14.8625 124.28C10.8405 123.021 9.93604 121.689 9.93604 121.321C9.93604 120.952 10.8405 119.613 14.8625 118.354C18.6935 117.154 23.8185 116.492 29.2965 116.492C34.7745 116.492 39.8995 117.154 43.7304 118.354C47.7525 119.613 48.6643 120.952 48.6643 121.321C48.6643 121.689 47.7525 123.021 43.7304 124.28C39.8995 125.48 34.7745 126.142 29.2965 126.142Z" fill="#75869C"/>
</g>
<g style="mix-blend-mode:multiply" opacity="0.3">
<path d="M29.2965 126.144C23.8185 126.144 18.6935 125.437 14.8625 124.149C10.8405 122.794 9.93604 121.359 9.93604 120.961C9.93604 120.571 10.8405 119.136 14.8625 117.781C18.6935 116.493 23.8185 115.786 29.2965 115.786C34.7745 115.786 39.8995 116.493 43.7304 117.781C47.7525 119.136 48.6643 120.571 48.6643 120.961C48.6643 121.359 47.7525 122.794 43.7304 124.149C39.8995 125.437 34.7745 126.144 29.2965 126.144Z" fill="#75869C"/>
</g>
<path d="M17.6203 123.537C17.1056 123.537 16.6423 123.227 16.5468 122.786C16.4438 122.292 16.8335 121.814 17.4218 121.726L39.4734 118.332C40.069 118.236 40.6352 118.568 40.7381 119.068C40.8484 119.561 40.4587 120.04 39.8705 120.128L17.8115 123.522C17.7477 123.532 17.684 123.537 17.6203 123.537Z" fill="#75869C"/>
<path d="M48.8186 113.46V119.592C48.8186 123.258 39.3333 126.232 27.642 126.232C15.9434 126.232 6.46533 123.258 6.46533 119.592V113.46H19.4949C22.0022 113.136 24.7523 112.952 27.642 112.952C30.5244 112.952 33.2744 113.136 35.7818 113.46H48.8186Z" fill="#EFF1F8"/>
<path d="M48.8186 113.46C48.8186 117.133 39.3333 120.1 27.642 120.1C15.9434 120.1 6.46533 117.133 6.46533 113.46C6.46533 109.794 15.9434 106.82 27.642 106.82C39.3333 106.82 48.8186 109.794 48.8186 113.46Z" fill="#E7F2E7"/>
<g style="mix-blend-mode:multiply" opacity="0.3">
<path d="M27.6422 118.288C22.1642 118.288 17.0392 117.626 13.2083 116.426C9.18619 115.167 8.27441 113.827 8.27441 113.459C8.27441 113.091 9.18619 111.759 13.2083 110.5C17.0392 109.3 22.1642 108.638 27.6422 108.638C33.1202 108.638 38.2453 109.3 42.0688 110.5C46.0983 111.759 47.0027 113.091 47.0027 113.459C47.0027 113.827 46.0983 115.167 42.0688 116.426C38.2453 117.626 33.1202 118.288 27.6422 118.288Z" fill="#75869C"/>
</g>
<g style="mix-blend-mode:multiply" opacity="0.3">
<path d="M27.6422 118.288C22.1642 118.288 17.0392 117.581 13.2083 116.285C9.18619 114.931 8.27441 113.503 8.27441 113.105C8.27441 112.715 9.18619 111.28 13.2083 109.925C17.0392 108.637 22.1642 107.923 27.6422 107.923C33.1202 107.923 38.2453 108.637 42.0688 109.925C46.0983 111.28 47.0027 112.715 47.0027 113.105C47.0027 113.503 46.0983 114.931 42.0688 116.285C38.2453 117.581 33.1202 118.288 27.6422 118.288Z" fill="#75869C"/>
</g>
<path d="M15.9581 115.683C15.4434 115.683 14.9875 115.373 14.8919 114.932C14.7817 114.439 15.1787 113.96 15.767 113.872L37.8186 110.478C38.4069 110.383 38.973 110.714 39.0833 111.207C39.1936 111.708 38.8039 112.186 38.2083 112.274L16.1567 115.668C16.0929 115.678 16.0268 115.683 15.9581 115.683Z" fill="#75869C"/>
<path d="M50.4734 107.084V113.216C50.4734 116.882 40.9954 119.856 29.2968 119.856C17.6055 119.856 8.12012 116.882 8.12012 113.216V107.084H21.1496C23.657 106.76 26.4144 106.576 29.2968 106.576C32.1865 106.576 34.9365 106.76 37.4439 107.084H50.4734Z" fill="#B7BAC9"/>
<path d="M50.4734 107.083C50.4734 110.749 40.9954 113.723 29.2968 113.723C17.6055 113.723 8.12012 110.749 8.12012 107.083C8.12012 103.417 17.6055 100.443 29.2968 100.443C40.9954 100.443 50.4734 103.417 50.4734 107.083Z" fill="#EFF1F8"/>
<g style="mix-blend-mode:multiply" opacity="0.3">
<path d="M29.2965 111.913C23.8185 111.913 18.6935 111.25 14.8625 110.05C10.8405 108.784 9.93604 107.452 9.93604 107.084C9.93604 106.716 10.8405 105.383 14.8625 104.125C18.6935 102.917 23.8185 102.262 29.2965 102.262C34.7745 102.262 39.8995 102.917 43.7304 104.125C47.7525 105.383 48.6643 106.716 48.6643 107.084C48.6643 107.452 47.7525 108.784 43.7304 110.05C39.8995 111.25 34.7745 111.913 29.2965 111.913Z" fill="#75869C"/>
</g>
<g style="mix-blend-mode:multiply" opacity="0.3">
<path d="M29.2965 111.913C23.8185 111.913 18.6935 111.199 14.8625 109.911C10.8405 108.557 9.93604 107.129 9.93604 106.731C9.93604 106.334 10.8405 104.906 14.8625 103.551C18.6935 102.263 23.8185 101.549 29.2965 101.549C34.7745 101.549 39.8995 102.263 43.7304 103.551C47.7525 104.906 48.6643 106.334 48.6643 106.731C48.6643 107.129 47.7525 108.557 43.7304 109.911C39.8995 111.199 34.7745 111.913 29.2965 111.913Z" fill="#75869C"/>
</g>
<path d="M17.6203 109.308C17.1056 109.308 16.6423 108.999 16.5468 108.557C16.4438 108.056 16.8335 107.585 17.4218 107.49L39.4734 104.096C40.069 104.008 40.6352 104.339 40.7381 104.832C40.8484 105.333 40.4587 105.811 39.8705 105.9L17.8115 109.293C17.7477 109.303 17.684 109.308 17.6203 109.308Z" fill="#75869C"/>
<path d="M48.8186 98.9063V105.031C48.8186 108.697 39.3333 111.671 27.642 111.671C15.9434 111.671 6.46533 108.697 6.46533 105.031V98.9063H19.4949C22.0022 98.575 24.7523 98.391 27.642 98.391C30.5244 98.391 33.2744 98.575 35.7818 98.9063H48.8186Z" fill="#999DAE"/>
<path d="M48.8186 98.9054C48.8186 102.571 39.3333 105.538 27.642 105.538C15.9434 105.538 6.46533 102.571 6.46533 98.9054C6.46533 95.2322 15.9434 92.2656 27.642 92.2656C39.3333 92.2656 48.8186 95.2322 48.8186 98.9054Z" fill="#EFF1F8"/>
<g style="mix-blend-mode:multiply" opacity="0.3">
<path d="M27.6422 103.727C22.1642 103.727 17.0392 103.065 13.2083 101.865C9.18619 100.606 8.27441 99.2737 8.27441 98.9056C8.27441 98.5376 9.18619 97.1978 13.2083 95.9391C17.0392 94.7392 22.1642 94.0767 27.6422 94.0767C33.1202 94.0767 38.2453 94.7392 42.0688 95.9391C46.0983 97.1978 47.0027 98.5376 47.0027 98.9056C47.0027 99.2737 46.0983 100.606 42.0688 101.865C38.2453 103.065 33.1202 103.727 27.6422 103.727Z" fill="#75869C"/>
</g>
<g style="mix-blend-mode:multiply" opacity="0.3">
<path d="M27.6422 103.727C22.1642 103.727 17.0392 103.02 13.2083 101.732C9.18619 100.378 8.27441 98.9421 8.27441 98.5446C8.27441 98.1544 9.18619 96.719 13.2083 95.3645C17.0392 94.0763 22.1642 93.3696 27.6422 93.3696C33.1202 93.3696 38.2453 94.0763 42.0688 95.3645C46.0983 96.719 47.0027 98.1544 47.0027 98.5446C47.0027 98.9421 46.0983 100.378 42.0688 101.732C38.2453 103.02 33.1202 103.727 27.6422 103.727Z" fill="#75869C"/>
</g>
<path d="M15.9581 101.123C15.4434 101.123 14.9875 100.814 14.8919 100.372C14.7817 99.8793 15.1787 99.4008 15.767 99.3125L37.8186 95.9189C38.4069 95.8232 38.973 96.1545 39.0833 96.6551C39.1936 97.1483 38.8039 97.6267 38.2083 97.7151L16.1567 101.109C16.0929 101.118 16.0268 101.123 15.9581 101.123Z" fill="#75869C"/>
<path d="M77.7313 116.256C79.2901 125.295 71.5254 132.944 62.3488 133.805C53.0105 134.688 44.0104 127.85 42.4001 118.516C40.7972 109.189 47.5987 99.4722 56.9958 98.8833C66.2165 98.3091 76.1798 107.216 77.7313 116.256Z" fill="#999DAE"/>
<path d="M78.2381 113.996C79.797 123.036 73.7381 131.052 64.5615 131.921C55.2159 132.804 46.2232 125.966 44.6128 116.632C43.0025 107.297 49.4364 99.2517 58.8335 98.6701C68.0542 98.096 76.6793 104.964 78.2381 113.996Z" fill="#EFF1F8"/>
<g style="mix-blend-mode:multiply" opacity="0.3">
<path d="M62.9294 130.523C59.025 130.523 55.1426 129.088 52.0029 126.475C48.8411 123.847 46.7308 120.262 46.069 116.382C45.3631 112.312 46.3117 108.381 48.7308 105.319C51.1573 102.242 54.7823 100.401 58.9221 100.144C59.2529 100.121 59.5838 100.114 59.9147 100.114C68.0104 100.114 75.4222 106.32 76.7899 114.255C77.4737 118.23 76.5693 122.102 74.2384 125.15C71.9148 128.19 68.4295 130.074 64.4221 130.45C63.9295 130.501 63.4295 130.523 62.9294 130.523Z" fill="#75869C"/>
</g>
<path d="M61.0912 102.844L65.2604 127.04C65.4075 127.872 64.8413 128.608 64.003 128.689C63.1574 128.762 62.3633 128.144 62.2163 127.312L58.0324 103.05C57.8927 102.21 58.4589 101.489 59.3045 101.438C60.1501 101.379 60.9515 102.012 61.0912 102.844Z" fill="#75869C"/>
<g style="mix-blend-mode:multiply" opacity="0.3">
<path d="M64.1209 128.667C64.5327 128.365 64.7533 127.85 64.6577 127.29L60.4885 103.094C60.3488 102.262 59.5473 101.636 58.7017 101.688C58.6527 101.693 58.6037 101.7 58.5547 101.71C58.7606 101.555 59.0179 101.452 59.3047 101.438C60.1503 101.379 60.9518 102.012 61.0915 102.844L65.2606 127.04C65.4003 127.835 64.893 128.534 64.1209 128.667Z" fill="#75869C"/>
</g>
<path d="M123.746 11.535H119.959C119.717 11.535 119.511 11.3289 119.511 11.0786V0.449035C119.511 0.198753 119.717 0 119.959 0H123.746C123.996 0 124.202 0.198753 124.202 0.449035V11.0786C124.202 11.3289 123.996 11.535 123.746 11.535Z" fill="white"/>
<path d="M115.577 11.535H111.79C111.54 11.535 111.341 11.3289 111.341 11.0786V0.449035C111.341 0.198753 111.54 0 111.79 0H115.577C115.827 0 116.025 0.198753 116.025 0.449035V11.0786C116.025 11.3289 115.827 11.535 115.577 11.535Z" fill="white"/>
<path d="M107.408 11.535H103.621C103.371 11.535 103.172 11.3289 103.172 11.0786V0.449035C103.172 0.198753 103.371 0 103.621 0H107.408C107.658 0 107.856 0.198753 107.856 0.449035V11.0786C107.856 11.3289 107.658 11.535 107.408 11.535Z" fill="white"/>
<path d="M99.2309 11.535H95.4515C95.2015 11.535 94.9956 11.3289 94.9956 11.0786V0.449035C94.9956 0.198753 95.2015 0 95.4515 0H99.2309C99.4809 0 99.6868 0.198753 99.6868 0.449035V11.0786C99.6868 11.3289 99.4809 11.535 99.2309 11.535Z" fill="white"/>
<path d="M78.3488 127.623C81.04 135.094 77.1282 143.405 69.6649 146.099L51.3412 152.702C49.2529 143.052 45.0764 134.078 38.5249 126.636L59.9001 118.929C67.3634 116.242 75.6649 120.151 78.3488 127.623Z" fill="#EFF1F8"/>
<g style="mix-blend-mode:multiply" opacity="0.5">
<path d="M76.319 123.854C77.1572 124.973 77.8484 126.239 78.3484 127.623C81.0396 135.094 77.1278 143.405 69.6645 146.1L30.4436 160.233C22.9877 162.927 14.6788 159.011 11.9949 151.539C11.8699 151.201 11.767 150.862 11.6714 150.516C19.5979 150.494 25.9289 146.931 31.5613 141.41C36.2819 136.832 45.2379 138.709 52.2011 140.343C55.2453 140.844 59.4953 140.262 61.7821 136.891C65.6939 131.186 70.6425 126.887 76.319 123.854Z" fill="#75869C"/>
</g>
<path d="M51.341 152.702L30.4437 160.233C22.9878 162.927 14.6789 159.011 11.995 151.539C9.31118 144.075 13.2156 135.757 20.6789 133.07L38.5247 126.636C45.0762 134.078 49.2527 143.052 51.341 152.702Z" fill="#1C293E"/>
<g style="mix-blend-mode:multiply" opacity="0.3">
<path d="M51.3408 152.702L30.4436 160.232C22.9877 162.927 14.6788 159.01 11.9949 151.539C11.9287 151.362 11.8699 151.178 11.8111 150.994C11.7621 150.837 11.7155 150.678 11.6714 150.516C19.5979 150.493 25.9289 146.931 31.5613 141.41C35.1201 137.965 41.0687 138.178 46.7673 139.187C48.8041 143.464 50.3261 148.005 51.3408 152.702Z" fill="#FE7B1E"/>
</g>
<path d="M108.195 166.357C106.959 174.197 99.5401 179.6 91.7018 178.364L72.459 175.323C75.2752 165.85 75.9296 155.971 73.7605 146.298L96.2018 149.846C104.033 151.083 109.43 158.51 108.195 166.357Z" fill="#E7F2E7"/>
<g style="mix-blend-mode:multiply" opacity="0.5">
<path d="M108.224 162.072C108.422 163.463 108.422 164.898 108.194 166.356C106.959 174.196 99.5399 179.599 91.7016 178.362L50.5248 171.847C42.6939 170.611 37.2968 163.183 38.5321 155.344C38.5909 154.983 38.6644 154.637 38.7453 154.291C45.7012 158.082 52.966 158.016 60.5543 155.888C66.9 154.151 73.8485 160.114 79.1574 164.898C81.5913 166.805 85.5913 168.351 89.2237 166.488C95.3928 163.375 101.797 161.998 108.224 162.072Z" fill="#75869C"/>
</g>
<path d="M72.4588 175.323L50.5248 171.849C42.6939 170.612 37.2968 163.184 38.5321 155.345C39.7674 147.498 47.1939 142.095 55.0249 143.331L73.7603 146.298C75.9294 155.97 75.275 165.849 72.4588 175.323Z" fill="#FE7B1E"/>
<g style="mix-blend-mode:multiply" opacity="0.3">
<path d="M72.4588 175.322L50.5248 171.847C42.6939 170.611 37.2968 163.183 38.5321 155.344C38.5615 155.145 38.5982 154.961 38.6424 154.769C38.6718 154.607 38.7061 154.448 38.7453 154.291C45.7012 158.082 52.966 158.016 60.5543 155.888C65.3264 154.585 70.4441 157.64 74.9515 161.269C74.6794 166.003 73.8265 170.706 72.4588 175.322Z" fill="#FE7B1E"/>
</g>
<path d="M116.696 146.843L206.642 141.11V190.631L120.122 196.139L120.12 196.14C119.449 196.185 118.658 195.716 117.799 194.53C116.955 193.367 116.132 191.626 115.381 189.417C113.883 185.005 112.712 178.823 112.232 171.92C111.753 165.017 112.06 158.73 112.935 154.153C113.373 151.861 113.949 150.023 114.623 148.755C115.31 147.462 116.027 146.889 116.695 146.843C116.695 146.843 116.696 146.843 116.696 146.843Z" fill="white" stroke="#AC7DF5" stroke-width="0.901493"/>
<g style="mix-blend-mode:soft-light" opacity="0.5">
<path d="M125.033 171.032C125.996 184.893 123.812 196.332 120.15 196.59C116.489 196.84 112.746 185.813 111.783 171.952C110.819 158.091 113.011 146.644 116.665 146.394C120.327 146.136 124.07 157.171 125.033 171.032Z" fill="#E7F2E7"/>
</g>
<path d="M118.349 171.364C118.386 171.865 118.011 172.299 117.503 172.336L0.973041 181.051C0.473037 181.088 0.0392098 180.713 0.00244481 180.205C-0.0343202 179.704 0.348036 179.27 0.84804 179.233L117.378 170.517C117.878 170.481 118.32 170.863 118.349 171.364Z" fill="#75869C"/>
<path d="M120.981 171.194C121.261 175.243 120.091 178.614 118.371 178.74C116.65 178.857 115.025 175.677 114.746 171.629C114.466 167.587 115.636 164.208 117.356 164.091C119.077 163.973 120.702 167.153 120.981 171.194Z" fill="#75869C"/>
<g style="mix-blend-mode:multiply" opacity="0.5">
<path d="M120.297 171.244C120.54 174.711 119.54 177.604 118.069 177.7C116.591 177.803 115.202 175.079 114.959 171.612C114.724 168.153 115.724 165.26 117.194 165.157C118.672 165.053 120.062 167.777 120.297 171.244Z" fill="#75869C"/>
</g>
<path d="M116.364 174.851L95.7384 176.287C94.5104 176.368 93.4442 175.44 93.356 174.218L93.231 172.393C93.1501 171.163 94.0766 170.096 95.2972 170.008L115.922 168.58C117.15 168.491 118.217 169.419 118.305 170.648L118.43 172.474C118.511 173.703 117.591 174.763 116.364 174.851Z" fill="#75869C"/>
<g style="mix-blend-mode:soft-light">
<path d="M116.569 171.031C116.621 171.781 115.444 172.473 113.944 172.584L97.6352 173.717C96.1352 173.821 94.8778 173.29 94.8263 172.54C94.7749 171.789 95.9513 171.089 97.4514 170.986L113.753 169.853C115.253 169.75 116.51 170.272 116.569 171.031Z" fill="#E7F2E7"/>
</g>
<path d="M127.813 10.0715H110.923V24.1472H127.813V10.0715Z" fill="#AC7DF5"/>
<path d="M140.814 44.6379H97.9217C91.3618 44.6379 86.037 49.9486 86.037 56.4853V131.09C86.037 137.627 91.3618 142.938 97.9217 142.938H140.814C147.374 142.938 152.699 137.627 152.699 131.09V56.4853C152.699 49.9486 147.374 44.6379 140.814 44.6379Z" fill="white" stroke="#0DB14C" stroke-width="0.901493"/>
<path d="M138.958 35.4896C138.958 31.3764 136.79 27.6237 133.224 24.885C129.658 22.1459 124.71 20.4394 119.225 20.4394C113.74 20.4394 108.793 22.1459 105.226 24.885C101.66 27.6237 99.4925 31.3764 99.4925 35.4896V43.7581H138.958V35.4896Z" fill="white" stroke="#1C293E" stroke-width="0.901493"/>
<path d="M132.369 7.34133C132.369 4.17751 129.758 1.62604 126.636 1.62604H112.151C108.977 1.62604 106.418 4.17751 106.418 7.34133C106.418 10.5052 108.977 13.0566 112.151 13.0566H126.636C129.758 13.0566 132.369 10.5052 132.369 7.34133Z" fill="#FE7B1E"/>
<path d="M135.082 39.4407C135.389 39.4407 135.696 39.1856 135.696 38.8794C135.696 33.1131 128.888 27.6019 128.581 27.3468C128.325 27.1427 127.967 27.1937 127.762 27.4488C127.557 27.704 127.557 28.0612 127.813 28.2653C127.916 28.3163 134.467 33.6744 134.467 38.8794C134.467 39.1856 134.774 39.4407 135.082 39.4407Z" fill="#E3E5ED"/>
<path d="M108.252 89.9499C108.252 90.3267 108.155 90.6817 107.959 91.0149C107.771 91.341 107.488 91.6126 107.111 91.83C106.742 92.0401 106.304 92.1633 105.796 92.1995V93.0797H105.101V92.1886C104.376 92.1234 103.793 91.9061 103.351 91.5366C102.909 91.1598 102.681 90.6527 102.667 90.0152H104.297C104.34 90.5368 104.608 90.8519 105.101 90.9606V88.885C104.579 88.7545 104.159 88.6241 103.84 88.4937C103.522 88.3633 103.246 88.1532 103.014 87.8634C102.783 87.5736 102.667 87.1788 102.667 86.6789C102.667 86.0486 102.891 85.5342 103.34 85.1357C103.797 84.7373 104.384 84.509 105.101 84.4511V83.5708H105.796V84.4511C106.492 84.509 107.046 84.7192 107.459 85.0814C107.879 85.4436 108.115 85.9435 108.166 86.5811H106.525C106.503 86.371 106.427 86.1899 106.296 86.0377C106.173 85.8783 106.007 85.766 105.796 85.7008V87.7548C106.34 87.8924 106.767 88.0264 107.079 88.1568C107.398 88.28 107.673 88.4865 107.905 88.7763C108.137 89.0588 108.252 89.4501 108.252 89.9499ZM104.253 86.6028C104.253 86.8419 104.326 87.0375 104.471 87.1897C104.616 87.3345 104.826 87.4541 105.101 87.5483V85.6682C104.84 85.7045 104.634 85.8023 104.482 85.9616C104.329 86.121 104.253 86.3348 104.253 86.6028ZM105.796 90.9823C106.072 90.9316 106.285 90.8193 106.438 90.6455C106.597 90.4716 106.677 90.2615 106.677 90.0152C106.677 89.7761 106.601 89.5841 106.448 89.4392C106.296 89.2943 106.079 89.1747 105.796 89.0806V90.9823ZM109.799 86.2985C109.835 85.574 110.089 85.0162 110.56 84.625C111.038 84.2265 111.664 84.0273 112.44 84.0273C112.968 84.0273 113.421 84.1214 113.798 84.3098C114.175 84.4909 114.457 84.7409 114.646 85.0597C114.841 85.3712 114.939 85.7262 114.939 86.1247C114.939 86.5811 114.82 86.9687 114.58 87.2875C114.349 87.599 114.07 87.8091 113.744 87.9178V87.9612C114.164 88.0916 114.49 88.3235 114.722 88.6567C114.961 88.99 115.08 89.4175 115.08 89.9391C115.08 90.3738 114.979 90.7614 114.776 91.1019C114.58 91.4424 114.287 91.7105 113.896 91.9061C113.512 92.0944 113.048 92.1886 112.505 92.1886C111.686 92.1886 111.02 91.9821 110.505 91.5692C109.991 91.1562 109.719 90.5477 109.69 89.7435H111.168C111.183 90.0985 111.302 90.3846 111.527 90.602C111.759 90.8121 112.074 90.9171 112.472 90.9171C112.842 90.9171 113.124 90.8157 113.32 90.6129C113.523 90.4028 113.624 90.1347 113.624 89.8087C113.624 89.374 113.486 89.0625 113.211 88.8741C112.936 88.6857 112.508 88.5915 111.929 88.5915H111.614V87.3418H111.929C112.958 87.3418 113.472 86.9977 113.472 86.3094C113.472 85.9979 113.378 85.7552 113.189 85.5813C113.008 85.4074 112.744 85.3205 112.396 85.3205C112.056 85.3205 111.791 85.4147 111.603 85.603C111.422 85.7841 111.317 86.016 111.288 86.2985H109.799ZM117.13 92.2103C116.855 92.2103 116.627 92.127 116.446 91.9604C116.272 91.7865 116.185 91.5728 116.185 91.3192C116.185 91.0657 116.272 90.8556 116.446 90.6889C116.627 90.515 116.855 90.4281 117.13 90.4281C117.398 90.4281 117.619 90.515 117.793 90.6889C117.967 90.8556 118.054 91.0657 118.054 91.3192C118.054 91.5728 117.967 91.7865 117.793 91.9604C117.619 92.127 117.398 92.2103 117.13 92.2103ZM120.431 87.9395C119.707 87.5628 119.345 86.9796 119.345 86.1899C119.345 85.7986 119.442 85.4436 119.638 85.1249C119.841 84.7988 120.142 84.5417 120.54 84.3533C120.946 84.1577 121.438 84.0599 122.018 84.0599C122.598 84.0599 123.087 84.1577 123.485 84.3533C123.891 84.5417 124.191 84.7988 124.387 85.1249C124.59 85.4436 124.691 85.7986 124.691 86.1899C124.691 86.5883 124.594 86.9397 124.398 87.244C124.202 87.541 123.942 87.7729 123.616 87.9395C124.014 88.1134 124.326 88.3669 124.55 88.7002C124.775 89.0335 124.887 89.4283 124.887 89.8847C124.887 90.3774 124.76 90.8085 124.507 91.178C124.26 91.5402 123.92 91.8191 123.485 92.0147C123.05 92.2103 122.561 92.3082 122.018 92.3082C121.475 92.3082 120.986 92.2103 120.551 92.0147C120.123 91.8191 119.783 91.5402 119.529 91.178C119.283 90.8085 119.16 90.3774 119.16 89.8847C119.16 89.4283 119.272 89.0335 119.497 88.7002C119.721 88.3597 120.033 88.1061 120.431 87.9395ZM123.213 86.4072C123.213 86.0522 123.105 85.7769 122.887 85.5813C122.677 85.3857 122.388 85.2879 122.018 85.2879C121.656 85.2879 121.366 85.3857 121.149 85.5813C120.939 85.7769 120.833 86.0558 120.833 86.4181C120.833 86.7441 120.942 87.0049 121.16 87.2005C121.384 87.3961 121.67 87.4939 122.018 87.4939C122.366 87.4939 122.652 87.3961 122.877 87.2005C123.101 86.9977 123.213 86.7332 123.213 86.4072ZM122.018 88.6024C121.605 88.6024 121.268 88.7075 121.007 88.9176C120.754 89.1277 120.627 89.4283 120.627 89.8195C120.627 90.1818 120.75 90.4788 120.996 90.7107C121.25 90.9353 121.591 91.0475 122.018 91.0475C122.445 91.0475 122.782 90.9316 123.029 90.6998C123.275 90.468 123.398 90.1745 123.398 89.8195C123.398 89.4356 123.271 89.1385 123.018 88.9284C122.764 88.7111 122.431 88.6024 122.018 88.6024ZM126.023 90.5911V89.3957L129.577 84.3098H131.348V89.2653H132.305V90.5911H131.348V92.1343H129.827V90.5911H126.023ZM129.925 85.9399L127.697 89.2653H129.925V85.9399Z" fill="black"/>
<rect x="92.603" y="99.2095" width="49.8673" height="13.7168" rx="6.85841" fill="#9EE0B7"/>
<path d="M100.688 108.625C100.313 108.625 99.9759 108.56 99.677 108.429C99.3836 108.293 99.1527 108.109 98.9842 107.875C98.8158 107.636 98.7288 107.362 98.7234 107.052H99.514C99.5412 107.318 99.6498 107.544 99.84 107.728C100.036 107.908 100.318 107.997 100.688 107.997C101.041 107.997 101.318 107.91 101.519 107.737C101.725 107.557 101.829 107.329 101.829 107.052C101.829 106.835 101.769 106.658 101.649 106.522C101.53 106.386 101.38 106.283 101.201 106.212C101.022 106.142 100.78 106.066 100.476 105.984C100.101 105.886 99.7993 105.789 99.5711 105.691C99.3483 105.593 99.1554 105.441 98.9924 105.234C98.8348 105.022 98.756 104.74 98.756 104.387C98.756 104.077 98.8348 103.803 98.9924 103.563C99.1499 103.324 99.37 103.14 99.6526 103.009C99.9405 102.879 100.269 102.814 100.639 102.814C101.171 102.814 101.606 102.947 101.943 103.213C102.285 103.479 102.478 103.832 102.522 104.273H101.706C101.679 104.055 101.565 103.865 101.364 103.702C101.163 103.534 100.897 103.449 100.565 103.449C100.256 103.449 100.003 103.531 99.8074 103.694C99.6118 103.851 99.514 104.074 99.514 104.362C99.514 104.569 99.5711 104.737 99.6852 104.868C99.8047 104.998 99.9487 105.098 100.117 105.169C100.291 105.234 100.533 105.31 100.843 105.397C101.217 105.501 101.519 105.604 101.747 105.707C101.975 105.805 102.171 105.96 102.334 106.172C102.497 106.378 102.579 106.661 102.579 107.019C102.579 107.296 102.505 107.557 102.359 107.802C102.212 108.046 101.994 108.245 101.706 108.397C101.418 108.549 101.079 108.625 100.688 108.625ZM103.393 106.318C103.393 105.862 103.485 105.463 103.67 105.12C103.855 104.772 104.107 104.503 104.428 104.313C104.754 104.123 105.115 104.028 105.512 104.028C105.903 104.028 106.243 104.112 106.531 104.281C106.819 104.449 107.033 104.661 107.175 104.916V104.101H107.925V108.568H107.175V107.737C107.028 107.997 106.808 108.215 106.515 108.389C106.227 108.557 105.89 108.641 105.504 108.641C105.107 108.641 104.749 108.543 104.428 108.348C104.107 108.152 103.855 107.878 103.67 107.525C103.485 107.171 103.393 106.769 103.393 106.318ZM107.175 106.326C107.175 105.99 107.107 105.696 106.971 105.446C106.835 105.196 106.65 105.006 106.417 104.876C106.189 104.74 105.936 104.672 105.659 104.672C105.382 104.672 105.129 104.737 104.901 104.868C104.673 104.998 104.491 105.188 104.355 105.438C104.219 105.688 104.151 105.981 104.151 106.318C104.151 106.661 104.219 106.96 104.355 107.215C104.491 107.465 104.673 107.658 104.901 107.794C105.129 107.924 105.382 107.989 105.659 107.989C105.936 107.989 106.189 107.924 106.417 107.794C106.65 107.658 106.835 107.465 106.971 107.215C107.107 106.96 107.175 106.663 107.175 106.326ZM110.841 107.883L112.226 104.101H113.017L111.265 108.568H110.401L108.648 104.101H109.447L110.841 107.883ZM117.822 106.163C117.822 106.305 117.814 106.454 117.798 106.612H114.228C114.255 107.052 114.404 107.397 114.676 107.647C114.953 107.891 115.287 108.014 115.678 108.014C115.999 108.014 116.265 107.94 116.477 107.794C116.694 107.641 116.847 107.44 116.934 107.19H117.732C117.613 107.62 117.374 107.97 117.015 108.242C116.656 108.508 116.211 108.641 115.678 108.641C115.255 108.641 114.874 108.546 114.537 108.356C114.206 108.166 113.945 107.897 113.755 107.549C113.565 107.196 113.47 106.788 113.47 106.326C113.47 105.865 113.562 105.46 113.747 105.112C113.931 104.764 114.19 104.498 114.521 104.313C114.858 104.123 115.244 104.028 115.678 104.028C116.102 104.028 116.477 104.12 116.803 104.305C117.129 104.49 117.379 104.745 117.553 105.071C117.732 105.392 117.822 105.756 117.822 106.163ZM117.056 106.009C117.056 105.726 116.993 105.484 116.868 105.283C116.743 105.077 116.572 104.922 116.355 104.819C116.143 104.71 115.907 104.656 115.646 104.656C115.271 104.656 114.95 104.775 114.684 105.014C114.423 105.253 114.274 105.585 114.236 106.009H117.056ZM121.928 105.503C121.623 105.384 121.39 105.21 121.227 104.982C121.064 104.753 120.982 104.476 120.982 104.15C120.982 103.857 121.055 103.593 121.202 103.36C121.349 103.121 121.566 102.933 121.854 102.797C122.148 102.656 122.501 102.585 122.914 102.585C123.327 102.585 123.677 102.656 123.965 102.797C124.259 102.933 124.479 103.121 124.625 103.36C124.777 103.593 124.854 103.857 124.854 104.15C124.854 104.465 124.769 104.743 124.601 104.982C124.432 105.215 124.201 105.389 123.908 105.503C124.245 105.607 124.511 105.789 124.707 106.049C124.908 106.305 125.008 106.614 125.008 106.979C125.008 107.332 124.921 107.641 124.748 107.908C124.574 108.168 124.326 108.372 124.006 108.519C123.691 108.66 123.327 108.731 122.914 108.731C122.501 108.731 122.137 108.66 121.822 108.519C121.512 108.372 121.27 108.168 121.096 107.908C120.922 107.641 120.835 107.332 120.835 106.979C120.835 106.614 120.933 106.302 121.129 106.041C121.324 105.78 121.591 105.601 121.928 105.503ZM124.136 104.24C124.136 103.909 124.028 103.653 123.81 103.474C123.593 103.295 123.294 103.205 122.914 103.205C122.539 103.205 122.243 103.295 122.025 103.474C121.808 103.653 121.699 103.911 121.699 104.248C121.699 104.552 121.811 104.797 122.033 104.982C122.262 105.166 122.555 105.259 122.914 105.259C123.278 105.259 123.571 105.166 123.794 104.982C124.022 104.791 124.136 104.544 124.136 104.24ZM122.914 105.829C122.512 105.829 122.183 105.924 121.928 106.115C121.672 106.299 121.544 106.579 121.544 106.954C121.544 107.302 121.667 107.582 121.911 107.794C122.161 108.005 122.495 108.111 122.914 108.111C123.332 108.111 123.664 108.005 123.908 107.794C124.153 107.582 124.275 107.302 124.275 106.954C124.275 106.59 124.15 106.313 123.9 106.123C123.65 105.927 123.321 105.829 122.914 105.829ZM127.069 105.503C126.765 105.384 126.531 105.21 126.368 104.982C126.205 104.753 126.124 104.476 126.124 104.15C126.124 103.857 126.197 103.593 126.344 103.36C126.491 103.121 126.708 102.933 126.996 102.797C127.289 102.656 127.643 102.585 128.056 102.585C128.468 102.585 128.819 102.656 129.107 102.797C129.4 102.933 129.62 103.121 129.767 103.36C129.919 103.593 129.995 103.857 129.995 104.15C129.995 104.465 129.911 104.743 129.743 104.982C129.574 105.215 129.343 105.389 129.05 105.503C129.387 105.607 129.653 105.789 129.849 106.049C130.05 106.305 130.15 106.614 130.15 106.979C130.15 107.332 130.063 107.641 129.889 107.908C129.715 108.168 129.468 108.372 129.148 108.519C128.833 108.66 128.468 108.731 128.056 108.731C127.643 108.731 127.279 108.66 126.963 108.519C126.654 108.372 126.412 108.168 126.238 107.908C126.064 107.641 125.977 107.332 125.977 106.979C125.977 106.614 126.075 106.302 126.271 106.041C126.466 105.78 126.732 105.601 127.069 105.503ZM129.278 104.24C129.278 103.909 129.169 103.653 128.952 103.474C128.735 103.295 128.436 103.205 128.056 103.205C127.681 103.205 127.384 103.295 127.167 103.474C126.95 103.653 126.841 103.911 126.841 104.248C126.841 104.552 126.952 104.797 127.175 104.982C127.403 105.166 127.697 105.259 128.056 105.259C128.42 105.259 128.713 105.166 128.936 104.982C129.164 104.791 129.278 104.544 129.278 104.24ZM128.056 105.829C127.653 105.829 127.325 105.924 127.069 106.115C126.814 106.299 126.686 106.579 126.686 106.954C126.686 107.302 126.808 107.582 127.053 107.794C127.303 108.005 127.637 108.111 128.056 108.111C128.474 108.111 128.805 108.005 129.05 107.794C129.294 107.582 129.417 107.302 129.417 106.954C129.417 106.59 129.292 106.313 129.042 106.123C128.792 105.927 128.463 105.829 128.056 105.829ZM130.972 104.004C130.972 103.634 131.084 103.341 131.306 103.123C131.529 102.901 131.814 102.789 132.162 102.789C132.51 102.789 132.795 102.901 133.018 103.123C133.241 103.341 133.352 103.634 133.352 104.004C133.352 104.379 133.241 104.677 133.018 104.9C132.795 105.118 132.51 105.226 132.162 105.226C131.814 105.226 131.529 105.118 131.306 104.9C131.084 104.677 130.972 104.379 130.972 104.004ZM135.732 102.879L132.431 108.568H131.698L134.999 102.879H135.732ZM132.162 103.246C131.977 103.246 131.831 103.311 131.722 103.441C131.619 103.566 131.567 103.754 131.567 104.004C131.567 104.254 131.619 104.444 131.722 104.574C131.831 104.705 131.977 104.77 132.162 104.77C132.347 104.77 132.494 104.705 132.602 104.574C132.711 104.438 132.765 104.248 132.765 104.004C132.765 103.754 132.711 103.566 132.602 103.441C132.494 103.311 132.347 103.246 132.162 103.246ZM134.094 107.443C134.094 107.068 134.205 106.772 134.428 106.555C134.651 106.332 134.936 106.221 135.284 106.221C135.632 106.221 135.914 106.332 136.131 106.555C136.354 106.772 136.466 107.068 136.466 107.443C136.466 107.813 136.354 108.109 136.131 108.332C135.914 108.554 135.632 108.666 135.284 108.666C134.936 108.666 134.651 108.557 134.428 108.34C134.205 108.117 134.094 107.818 134.094 107.443ZM135.276 106.685C135.091 106.685 134.944 106.75 134.836 106.881C134.727 107.006 134.673 107.193 134.673 107.443C134.673 107.688 134.727 107.875 134.836 108.005C134.944 108.13 135.091 108.193 135.276 108.193C135.46 108.193 135.607 108.13 135.716 108.005C135.824 107.875 135.879 107.688 135.879 107.443C135.879 107.193 135.824 107.006 135.716 106.881C135.607 106.75 135.46 106.685 135.276 106.685Z" fill="black"/>
<path d="M107.737 71.7483C107.488 71.7483 107.264 71.705 107.066 71.6185C106.871 71.5283 106.718 71.4057 106.606 71.2507C106.495 71.092 106.437 70.9099 106.433 70.7044H106.958C106.976 70.8811 107.048 71.0307 107.174 71.1533C107.304 71.2723 107.492 71.3318 107.737 71.3318C107.971 71.3318 108.155 71.2741 108.289 71.1587C108.426 71.0397 108.494 70.8883 108.494 70.7044C108.494 70.5601 108.454 70.443 108.375 70.3528C108.296 70.2627 108.197 70.1941 108.078 70.1473C107.959 70.1004 107.798 70.0499 107.596 69.9958C107.347 69.9309 107.147 69.866 106.996 69.8011C106.848 69.7362 106.72 69.6352 106.612 69.4982C106.507 69.3576 106.455 69.17 106.455 68.9357C106.455 68.7301 106.507 68.548 106.612 68.3894C106.716 68.2307 106.862 68.1081 107.05 68.0215C107.241 67.935 107.459 67.8917 107.704 67.8917C108.058 67.8917 108.346 67.9801 108.57 68.1568C108.797 68.3335 108.925 68.5678 108.954 68.8599H108.413C108.395 68.7157 108.319 68.5895 108.186 68.4813C108.052 68.3695 107.876 68.3136 107.656 68.3136C107.45 68.3136 107.283 68.3677 107.153 68.4759C107.023 68.5805 106.958 68.7283 106.958 68.9194C106.958 69.0565 106.996 69.1682 107.072 69.2548C107.151 69.3413 107.246 69.408 107.358 69.4549C107.474 69.4982 107.634 69.5487 107.84 69.6064C108.088 69.6749 108.289 69.7434 108.44 69.8119C108.591 69.8768 108.721 69.9796 108.829 70.1202C108.938 70.2572 108.992 70.4448 108.992 70.6827C108.992 70.8667 108.943 71.0397 108.846 71.202C108.748 71.3643 108.604 71.4959 108.413 71.5969C108.222 71.6978 107.996 71.7483 107.737 71.7483ZM109.532 70.2176C109.532 69.9147 109.593 69.6496 109.716 69.4225C109.839 69.1917 110.006 69.0132 110.219 68.887C110.435 68.7608 110.675 68.6977 110.939 68.6977C111.198 68.6977 111.424 68.7536 111.615 68.8653C111.806 68.9771 111.948 69.1178 112.042 69.2872V68.7463H112.54V71.7104H112.042V71.1587C111.945 71.3318 111.799 71.4761 111.604 71.5915C111.413 71.7032 111.189 71.7591 110.933 71.7591C110.67 71.7591 110.432 71.6942 110.219 71.5644C110.006 71.4346 109.839 71.2525 109.716 71.0181C109.593 70.7837 109.532 70.5169 109.532 70.2176ZM112.042 70.223C112.042 69.9994 111.997 69.8047 111.907 69.6388C111.817 69.4729 111.694 69.3467 111.539 69.2602C111.387 69.17 111.22 69.125 111.036 69.125C110.852 69.125 110.684 69.1682 110.533 69.2548C110.381 69.3413 110.261 69.4675 110.17 69.6334C110.08 69.7993 110.035 69.994 110.035 70.2176C110.035 70.4448 110.08 70.6431 110.17 70.8126C110.261 70.9784 110.381 71.1064 110.533 71.1966C110.684 71.2831 110.852 71.3264 111.036 71.3264C111.22 71.3264 111.387 71.2831 111.539 71.1966C111.694 71.1064 111.817 70.9784 111.907 70.8126C111.997 70.6431 112.042 70.4466 112.042 70.223ZM114.475 71.2561L115.394 68.7463H115.919L114.756 71.7104H114.183L113.02 68.7463H113.55L114.475 71.2561ZM116.658 68.2649C116.564 68.2649 116.484 68.2325 116.42 68.1676C116.355 68.1027 116.322 68.0233 116.322 67.9296C116.322 67.8358 116.355 67.7565 116.42 67.6916C116.484 67.6267 116.564 67.5942 116.658 67.5942C116.748 67.5942 116.823 67.6267 116.885 67.6916C116.95 67.7565 116.982 67.8358 116.982 67.9296C116.982 68.0233 116.95 68.1027 116.885 68.1676C116.823 68.2325 116.748 68.2649 116.658 68.2649ZM116.896 68.7463V71.7104H116.403V68.7463H116.896ZM119.179 68.6923C119.539 68.6923 119.831 68.8022 120.055 69.0222C120.278 69.2386 120.39 69.5523 120.39 69.9634V71.7104H119.903V70.0337C119.903 69.738 119.83 69.5126 119.682 69.3576C119.534 69.1989 119.332 69.1196 119.076 69.1196C118.816 69.1196 118.609 69.2007 118.454 69.363C118.302 69.5252 118.227 69.7614 118.227 70.0715V71.7104H117.734V68.7463H118.227V69.1682C118.324 69.0168 118.456 68.8996 118.622 68.8167C118.791 68.7337 118.977 68.6923 119.179 68.6923ZM122.417 68.6977C122.673 68.6977 122.896 68.7536 123.087 68.8653C123.282 68.9771 123.426 69.1178 123.52 69.2872V68.7463H124.018V71.7754C124.018 72.0458 123.96 72.2856 123.845 72.4947C123.729 72.7075 123.563 72.8734 123.347 72.9924C123.134 73.1114 122.885 73.1709 122.601 73.1709C122.211 73.1709 121.887 73.0789 121.627 72.895C121.367 72.7111 121.214 72.4605 121.167 72.1432H121.654C121.708 72.3235 121.82 72.4677 121.989 72.5759C122.159 72.6877 122.363 72.7436 122.601 72.7436C122.871 72.7436 123.091 72.6588 123.26 72.4893C123.434 72.3199 123.52 72.0819 123.52 71.7754V71.1533C123.423 71.3264 123.279 71.4707 123.087 71.586C122.896 71.7014 122.673 71.7591 122.417 71.7591C122.153 71.7591 121.914 71.6942 121.697 71.5644C121.485 71.4346 121.317 71.2525 121.194 71.0181C121.072 70.7837 121.01 70.5169 121.01 70.2176C121.01 69.9147 121.072 69.6496 121.194 69.4225C121.317 69.1917 121.485 69.0132 121.697 68.887C121.914 68.7608 122.153 68.6977 122.417 68.6977ZM123.52 70.223C123.52 69.9994 123.475 69.8047 123.385 69.6388C123.295 69.4729 123.172 69.3467 123.017 69.2602C122.866 69.17 122.698 69.125 122.514 69.125C122.33 69.125 122.162 69.1682 122.011 69.2548C121.86 69.3413 121.739 69.4675 121.649 69.6334C121.558 69.7993 121.513 69.994 121.513 70.2176C121.513 70.4448 121.558 70.6431 121.649 70.8126C121.739 70.9784 121.86 71.1064 122.011 71.1966C122.162 71.2831 122.33 71.3264 122.514 71.3264C122.698 71.3264 122.866 71.2831 123.017 71.1966C123.172 71.1064 123.295 70.9784 123.385 70.8126C123.475 70.6431 123.52 70.4466 123.52 70.223ZM125.899 71.7591C125.672 71.7591 125.468 71.7213 125.288 71.6455C125.107 71.5662 124.965 71.458 124.86 71.321C124.756 71.1804 124.698 71.0199 124.687 70.8396H125.196C125.21 70.9875 125.279 71.1083 125.401 71.202C125.527 71.2958 125.692 71.3426 125.893 71.3426C126.081 71.3426 126.229 71.3012 126.337 71.2182C126.445 71.1353 126.499 71.0307 126.499 70.9045C126.499 70.7747 126.442 70.6791 126.326 70.6178C126.211 70.5529 126.032 70.4898 125.791 70.4285C125.571 70.3708 125.39 70.3131 125.25 70.2554C125.113 70.1941 124.994 70.1058 124.893 69.9904C124.795 69.8714 124.747 69.7163 124.747 69.5252C124.747 69.3738 124.792 69.235 124.882 69.1087C124.972 68.9825 125.1 68.8834 125.266 68.8112C125.432 68.7355 125.621 68.6977 125.834 68.6977C126.162 68.6977 126.427 68.7806 126.629 68.9465C126.831 69.1123 126.939 69.3395 126.954 69.628H126.461C126.451 69.4729 126.387 69.3485 126.272 69.2548C126.16 69.161 126.009 69.1142 125.818 69.1142C125.641 69.1142 125.5 69.152 125.396 69.2277C125.291 69.3035 125.239 69.4026 125.239 69.5252C125.239 69.6226 125.27 69.7037 125.331 69.7686C125.396 69.8299 125.475 69.8804 125.569 69.9201C125.666 69.9561 125.8 69.9976 125.969 70.0445C126.182 70.1022 126.355 70.1599 126.488 70.2176C126.622 70.2717 126.735 70.3546 126.829 70.4664C126.927 70.5782 126.977 70.7242 126.981 70.9045C126.981 71.0668 126.936 71.2128 126.845 71.3426C126.755 71.4725 126.627 71.5752 126.461 71.651C126.299 71.7231 126.112 71.7591 125.899 71.7591Z" fill="#9EE0B7"/>
</svg>
